<svg width="8" height="14" viewBox="0 0 8 14" fill="none" xmlns="http://www.w3.org/2000/svg">
<path d="M5.48831 7L0.523468 2.03906C0.156281 1.67188 0.156281 1.07812 0.523468 0.714844C0.890655 0.351563 1.4844 0.351563 1.85159 0.714844L7.47658 6.33594C7.83205 6.69141 7.83986 7.26172 7.50393 7.62891L1.8555 13.2891C1.6719 13.4727 1.42972 13.5625 1.19144 13.5625C0.953155 13.5625 0.710968 13.4727 0.527374 13.2891C0.160187 12.9219 0.160187 12.3281 0.527374 11.9648L5.48831 7Z" fill="white"/>
<path d="M5.48831 7L0.523468 2.03906C0.156281 1.67188 0.156281 1.07812 0.523468 0.714844C0.890655 0.351563 1.4844 0.351563 1.85159 0.714844L7.47658 6.33594C7.83205 6.69141 7.83986 7.26172 7.50393 7.62891L1.8555 13.2891C1.6719 13.4727 1.42972 13.5625 1.19144 13.5625C0.953155 13.5625 0.710968 13.4727 0.527374 13.2891C0.160187 12.9219 0.160187 12.3281 0.527374 11.9648L5.48831 7Z" stroke="#5C908D"/>
</svg>
